<svg xmlns="http://www.w3.org/2000/svg" width="682" height="41" fill="none"><path fill="#90C5DC" d="M21.596 0h-6.67L0 22.866h6.67L21.595 0ZM32.711 0h-6.67L11.116 22.866h6.67L32.71 0ZM43.51 0h-6.67L21.915 22.866h6.67L43.51 0ZM54.307 0h-6.67L32.712 22.866h6.67L54.306 0ZM65.106 0h-6.67L43.51 22.866h6.67L65.105 0ZM75.905 0h-6.67L54.31 22.866h6.669L75.905 0ZM86.702 0h-6.67L65.106 22.866h6.669L86.702 0ZM97.5 0h-6.669L75.904 22.866h6.67L97.5 0Z"/><path stroke="#90C5DC" stroke-width="2" d="M682 24.866H400.115l-39.848 15H0"/></svg>