<svg xmlns="http://www.w3.org/2000/svg" width="103" height="37" fill="none"><path fill="#2BDEFD" d="M18.796 0h.82l2.49 7h-.79l-.65-1.89h-2.92L17.096 7h-.79l2.49-7Zm1.65 4.45L19.215.88h-.02l-1.22 3.57h2.47ZM22.86 5.9V1.1l1.1-1.1h3.16l1.1 1.1v4.8L27.12 7h-3.16l-1.1-1.1Zm3.92.42.68-.67v-4.3l-.68-.67H24.3l-.68.67v4.3l.68.67h2.48ZM29.021 0h.79l2.08 6.09h.02L33.992 0h.79l-2.47 7h-.82l-2.47-7Zm6.514 6.08v-.64h.75v.39l.48.49h2.4l.5-.51V4.24l-.5-.49h-2.69l-.92-.92V.92l.92-.92h2.94l.92.92v.65h-.74v-.4l-.5-.49h-2.29l-.5.49v1.41l.5.49h2.69l.92.92v2.07l-.94.94h-3.02l-.92-.92Zm6.023-.42 3.66-3.62v-.87l-.5-.49h-1.94l-.5.49v.53h-.76V.92l.92-.92h2.62l.92.92v1.34l-3.66 3.62v.44h3.7V7h-4.46V5.66ZM47.316 0h.76v3.17h1.63L51.516 0h.82l-1.99 3.49L52.486 7h-.84l-1.93-3.15h-1.64V7h-.76V0Zm5.911 5.66 3.66-3.62v-.87l-.5-.49h-1.94l-.5.49v.53h-.76V.92l.92-.92h2.62l.92.92v1.34l-3.66 3.62v.44h3.7V7h-4.46V5.66Zm5.459.42V5.3h.76v.53l.5.49h2.12l.5-.49V4.3l-.48-.48h-2v-.68h2l.48-.48V1.17l-.5-.49h-2.06l-.5.49v.53h-.76V.92l.92-.92h2.74l.92.92v1.96l-.61.6.61.61v1.99l-.92.92h-2.8l-.92-.92Zm8.272-.42 3.66-3.62v-.87l-.5-.49h-1.94l-.5.49v.53h-.76V.92l.92-.92h2.62l.92.92v1.34l-3.66 3.62v.44h3.7V7h-4.46V5.66ZM72.716 0h3.93l.92.92v1.94l-.48.48.79.79v1.89l-.98.98h-4.18V0Zm3.61 3.16.5-.5V1.15l-.5-.49h-2.87v2.5h2.87Zm.23 3.18.58-.57v-1.4l-.58-.57h-3.1v2.54h3.1ZM79.181 0h4.04l1.1 1.1v4.8L83.22 7h-4.04V0Zm3.7 6.32.68-.67v-4.3l-.68-.67h-2.94v5.64h2.94ZM85.82 0h4.52v.68h-3.76v2.46h3.47v.68h-3.47v2.5h3.76V7h-4.52V0Zm5.82 0h4.42v.68H92.4V3.2h3.18v.68H92.4V7h-.76V0Zm5.518 0h4.04l1.1 1.1v4.8l-1.1 1.1h-4.04V0Zm3.7 6.32.68-.67v-4.3l-.68-.67h-2.94v5.64h2.94ZM.874 19.13h2.92v.66H.874v-.66Zm4.014 1.53 3.66-3.62v-.87l-.5-.49h-1.94l-.5.49v.53h-.76v-.78l.92-.92h2.62l.92.92v1.34l-3.66 3.62v.44h3.7V22h-4.46v-1.34Zm5.458.42v-.78h.76v.53l.5.49h2.12l.5-.49V19.3l-.48-.48h-2v-.68h2l.48-.48v-1.49l-.5-.49h-2.06l-.5.49v.53h-.76v-.78l.92-.92h2.74l.92.92v1.96l-.61.6.61.61v1.99l-.92.92h-2.8l-.92-.92Zm5.664.63v-.44l.29-.29h.44l.29.29v.44l-.29.29h-.44l-.29-.29Zm1.994-.63v-.78h.76v.53l.5.49h2.1l.5-.49v-2l-.5-.49h-3.26V15h4.38v.67h-3.64v1.99h2.85l.93.93v2.49l-.92.92h-2.78l-.92-.92Zm5.87 0v-2.06l.63-.63-.53-.53v-1.94l.92-.92h2.8l.92.92v1.94l-.53.53.63.63v2.06l-.92.92h-3l-.92-.92Zm3.48-2.97.5-.49v-1.45l-.5-.49h-2.12l-.5.49v1.45l.5.49h2.12Zm.1 3.21.5-.49v-1.57l-.5-.49h-2.32l-.5.49v1.57l.5.49h2.32Zm2.563-.24v-2.06l.63-.63-.53-.53v-1.94l.92-.92h2.8l.92.92v1.94l-.53.53.63.63v2.06l-.92.92h-3l-.92-.92Zm3.48-2.97.5-.49v-1.45l-.5-.49h-2.12l-.5.49v1.45l.5.49h2.12Zm.1 3.21.5-.49v-1.57l-.5-.49h-2.32l-.5.49v1.57l.5.49h2.32Zm3.883-5.54-1.57.81v-.7l1.63-.89h.7v7h-.76v-6.22Zm2.314 5.3v-5.16l.92-.92h2.8l.92.92v.78h-.76v-.53l-.5-.49h-2.12l-.5.49v2.36l.81-.81h2.19l.92.92v2.44l-.92.92h-2.84l-.92-.92Zm3.42.24.5-.49v-1.94l-.5-.49h-1.65l-1.01 1.01v1.42l.5.49h2.16Zm5.676-5.26v-.38h-3.62V15h4.38v1.11L46.91 22h-.8l2.78-5.94Zm3.13-.28-1.57.81v-.7l1.63-.89h.7v7h-.76v-6.22Zm2.315 5.3v-5.16l.92-.92h2.8l.92.92v.78h-.76v-.53l-.5-.49h-2.12l-.5.49v2.36l.81-.81h2.19l.92.92v2.44l-.92.92h-2.84l-.92-.92Zm3.42.24.5-.49v-1.94l-.5-.49h-1.65l-1.01 1.01v1.42l.5.49h2.16Zm2.356-.24v-.78h.76v.53l.5.49h2.12l.5-.49V19.3l-.48-.48h-2v-.68h2l.48-.48v-1.49l-.5-.49h-2.06l-.5.49v.53h-.76v-.78l.92-.92h2.74l.92.92v1.96l-.61.6.61.61v1.99l-.92.92h-2.8l-.92-.92Zm5.791 0v-.78h.76v.53l.5.49h2.12l.5-.49V19.3l-.48-.48h-2v-.68h2l.48-.48v-1.49l-.5-.49h-2.06l-.5.49v.53h-.76v-.78l.92-.92h2.74l.92.92v1.96l-.61.6.61.61v1.99l-.92.92h-2.8l-.92-.92Zm5.941 0v-2.06l.63-.63-.53-.53v-1.94l.92-.92h2.8l.92.92v1.94l-.53.53.63.63v2.06l-.92.92h-3l-.92-.92Zm3.48-2.97.5-.49v-1.45l-.5-.49h-2.12l-.5.49v1.45l.5.49h2.12Zm.1 3.21.5-.49v-1.57l-.5-.49h-2.32l-.5.49v1.57l.5.49h2.32Zm2.613-.32v-5l1-1h2.88l1 1v5l-1 1h-2.88l-1-1Zm3.54.32.58-.57v-4.5l-.58-.57h-2.2l-.58.57v4.5l.58.57h2.2Zm2.74-.32v-5l1-1h2.88l1 1v5l-1 1h-2.88l-1-1Zm3.54.32.58-.57v-4.5l-.58-.57h-2.2l-.58.57v4.5l.58.57h2.2Zm5.729-.75h-3.44v-1.18l2.99-4.39h1.21v4.89h.85v.68h-.85V22h-.76v-1.43Zm0-.66v-4.27h-.06l-2.64 3.87v.4h2.7Zm2.396.75 3.66-3.62v-.87l-.5-.49h-1.94l-.5.49v.53h-.76v-.78l.92-.92h2.62l.92.92v1.34l-3.66 3.62v.44h3.7V22h-4.46v-1.34ZM101.87 22h-.12l-.29-.29v-.44l.29-.29h.44l.29.29V22l-.5 1.24h-.41l.3-1.24ZM7.222 34.13h2.92v.66h-2.92v-.66Zm7.163 1.44h-3.44v-1.18l2.99-4.39h1.21v4.89h.85v.68h-.85V37h-.76v-1.43Zm0-.66v-4.27h-.06l-2.64 3.87v.4h2.7Zm2.557 1.17v-5.16l.92-.92h2.8l.92.92v.78h-.76v-.53l-.5-.49h-2.12l-.5.49v2.36l.81-.81h2.19l.92.92v2.44l-.92.92h-2.84l-.92-.92Zm3.42.24.5-.49v-1.94l-.5-.49h-1.65l-1.01 1.01v1.42l.5.49h2.16Zm2.23.39v-.44l.29-.29h.44l.29.29v.44l-.29.29h-.44l-.29-.29Zm2.094-.63v-5.16l.92-.92h2.8l.92.92v.78h-.76v-.53l-.5-.49h-2.12l-.5.49v2.36l.81-.81h2.19l.92.92v2.44l-.92.92h-2.84l-.92-.92Zm3.42.24.5-.49v-1.94l-.5-.49h-1.65l-1.01 1.01v1.42l.5.49h2.16Zm2.357-.24v-.78h.76v.53l.5.49h2.12l.5-.49V34.3l-.48-.48h-2v-.68h2l.48-.48v-1.49l-.5-.49h-2.06l-.5.49v.53h-.76v-.78l.92-.92h2.74l.92.92v1.96l-.61.6.61.61v1.99l-.92.92h-2.8l-.92-.92Zm5.83-.42 3.66-3.62v-.87l-.5-.49h-1.94l-.5.49v.53h-.76v-.78l.92-.92h2.62l.92.92v1.34l-3.66 3.62v.44h3.7V37h-4.46v-1.34Zm5.459.42v-.78h.76v.53l.5.49h2.12l.5-.49V34.3l-.48-.48h-2v-.68h2l.48-.48v-1.49l-.5-.49h-2.06l-.5.49v.53h-.76v-.78l.92-.92h2.74l.92.92v1.96l-.61.6.61.61v1.99l-.92.92h-2.8l-.92-.92Zm5.791 0v-.78h.76v.53l.5.49h2.12l.5-.49V34.3l-.48-.48h-2v-.68h2l.48-.48v-1.49l-.5-.49h-2.06l-.5.49v.53h-.76v-.78l.92-.92h2.74l.92.92v1.96l-.61.6.61.61v1.99l-.92.92h-2.8l-.92-.92Zm7.261-5.3-1.57.81v-.7l1.63-.89h.7v7h-.76v-6.22Zm2.364 5.3v-.78h.76v.53l.5.49h2.06l.5-.49v-2.22l-.71.71h-2.29l-.92-.92v-2.48l.92-.92h2.84l.92.92v5.16l-.92.92h-2.74l-.92-.92Zm2.91-2.44.91-.91v-1.56l-.5-.49h-2.16l-.5.49v1.98l.5.49h1.75ZM63.143 36v-5l1-1h2.88l1 1v5l-1 1h-2.88l-1-1Zm3.54.32.58-.57v-4.5l-.58-.57h-2.2l-.58.57v4.5l.58.57h2.2Zm2.54-.24v-.78h.76v.53l.5.49h2.12l.5-.49V34.3l-.48-.48h-2v-.68h2l.48-.48v-1.49l-.5-.49h-2.06l-.5.49v.53h-.76v-.78l.92-.92h2.74l.92.92v1.96l-.61.6.61.61v1.99l-.92.92h-2.8l-.92-.92Zm6.04 0v-.78h.76v.53l.5.49h2.06l.5-.49v-2.22l-.71.71h-2.29l-.92-.92v-2.48l.92-.92h2.84l.92.92v5.16l-.92.92h-2.74l-.92-.92Zm2.91-2.44.91-.91v-1.56l-.5-.49h-2.16l-.5.49v1.98l.5.49h1.75Zm6.056 1.93h-3.44v-1.18L83.78 30h1.21v4.89h.85v.68h-.85V37h-.76v-1.43Zm0-.66v-4.27h-.06l-2.64 3.87v.4h2.7Zm2.357 1.17v-.78h.76v.53l.5.49h2.12l.5-.49V34.3l-.48-.48h-2v-.68h2l.48-.48v-1.49l-.5-.49h-2.06l-.5.49v.53h-.76v-.78l.92-.92h2.74l.92.92v1.96l-.61.6.61.61v1.99l-.92.92h-2.8l-.92-.92Zm9.111-5.02v-.38h-3.62V30h4.38v1.11L93.717 37h-.8l2.78-5.94Zm1.81 5.02v-2.06l.63-.63-.53-.53v-1.94l.92-.92h2.8l.92.92v1.94l-.53.53.63.63v2.06l-.92.92h-3l-.92-.92Zm3.48-2.97.5-.49v-1.45l-.5-.49h-2.12l-.5.49v1.45l.5.49h2.12Zm.1 3.21.5-.49v-1.57l-.5-.49h-2.32l-.5.49v1.57l.5.49h2.32Z"/></svg>